<svg xmlns="http://www.w3.org/2000/svg" version="1.1" xmlns:xlink="http://www.w3.org/1999/xlink" xmlns:svgjs="http://svgjs.dev/svgjs" width="2000" height="368" viewBox="0 0 2000 368"><g transform="matrix(1,0,0,1,-1.2121212121212466,-0.4053679441578879)"><svg viewBox="0 0 396 73" data-background-color="#000000" preserveAspectRatio="xMidYMid meet" height="368" width="2000" xmlns="http://www.w3.org/2000/svg" xmlns:xlink="http://www.w3.org/1999/xlink"><g id="tight-bounds" transform="matrix(1,0,0,1,0.2400000000000091,0.08041266283566983)"><svg viewBox="0 0 395.52 72.83917467432863" height="72.83917467432863" width="395.52"><g><svg viewBox="0 0 489.97137256827375 90.23338994721138" height="72.83917467432863" width="395.52"><g transform="matrix(1,0,0,1,94.4513725682738,0)"><svg viewBox="0 0 395.52 90.23338994721138" height="90.23338994721138" width="395.52"><g id="textblocktransform"><svg viewBox="0 0 395.52 90.23338994721138" height="90.23338994721138" width="395.52" id="textblock"><g><svg viewBox="0 0 395.52 90.23338994721138" height="90.23338994721138" width="395.52"><g transform="matrix(1,0,0,1,0,0)"><svg width="395.52" viewBox="4 -38.7 217.83 49.7" height="90.23338994721138" data-palette-color="#f1f1f1"><path d="M4-34.5L14.85-34.5Q19.65-34.5 22.5-31.78 25.35-29.05 25.35-24.3 25.35-19.55 21.75-16.18 18.15-12.8 12.95-12.8L12.95-12.8 10.1-12.8 10.7 0 4 0 4.6-12.15 4-34.5ZM13.05-29.45L13.05-29.45 10.6-29.45 10.25-17.65 13.65-17.65Q16.15-17.65 17.53-19.3 18.9-20.95 18.9-24L18.9-24Q18.9-29.45 13.05-29.45ZM42.95-12.65Q42.95-16.1 42.35-17.25 41.75-18.4 39.55-18.4 37.35-18.4 34.55-16.65L34.55-16.65 34.55-13 35.1-1.25 28.35 0 28.95-12.15 28.35-37.45 35.2-38.7 34.55-25.75 34.55-19.9Q35.3-20.9 36.25-21.85 37.2-22.8 39.2-24 41.2-25.2 43.47-25.2 45.75-25.2 47.3-23.43 48.85-21.65 48.85-18.6L48.85-18.6 48.55-13 49.1-1 42.35 0.25 42.95-12.65ZM53.1-10.45Q53.1-16.85 56.55-21.3 60-25.75 64.62-25.75 69.25-25.75 71.82-22.75 74.4-19.75 74.4-14.8L74.4-14.8Q74.4-8.2 71.07-3.83 67.75 0.55 62.7 0.55L62.7 0.55Q58.55 0.55 55.82-2.58 53.1-5.7 53.1-10.45L53.1-10.45ZM68.8-12.2L68.8-12.2Q68.8-19.45 63.85-19.45L63.85-19.45Q58.7-19.45 58.7-12.65L58.7-12.65Q58.7-9.1 60.15-7.1 61.6-5.1 63.97-5.1 66.35-5.1 67.57-6.93 68.8-8.75 68.8-12.2ZM77.74-24.2L80.64-24.2 80.64-29.65 87.39-30.95 86.74-24.2 92.79-24.2 92.24-20.1 86.54-20.1 86.29-9.65Q86.29-7.3 86.74-6.53 87.19-5.75 88.39-5.75 89.59-5.75 91.59-6.3L91.59-6.3 91.89-2.75Q88.59 0 86.09 0 83.59 0 81.99-1.83 80.39-3.65 80.39-6.6L80.39-6.6 80.69-12.2 80.64-20.1 77.19-20.1 77.74-24.2ZM94.94-10.45Q94.94-16.85 98.39-21.3 101.84-25.75 106.47-25.75 111.09-25.75 113.67-22.75 116.24-19.75 116.24-14.8L116.24-14.8Q116.24-8.2 112.92-3.83 109.59 0.55 104.54 0.55L104.54 0.55Q100.39 0.55 97.67-2.58 94.94-5.7 94.94-10.45L94.94-10.45ZM110.64-12.2L110.64-12.2Q110.64-19.45 105.69-19.45L105.69-19.45Q100.54-19.45 100.54-12.65L100.54-12.65Q100.54-9.1 101.99-7.1 103.44-5.1 105.82-5.1 108.19-5.1 109.42-6.93 110.64-8.75 110.64-12.2ZM118.79 4.95L118.79 4.95Q118.79 0.55 126.99-1.95L126.99-1.95Q125.04-2.95 125.04-4.55L125.04-4.55Q125.04-5.2 125.54-5.85 126.04-6.5 126.99-7.2L126.99-7.2 126.99-7.6Q123.39-7.6 121.26-9.6 119.14-11.6 119.14-14.95L119.14-14.95Q119.14-19.3 122.69-22.53 126.24-25.75 131.09-25.75L131.09-25.75Q132.34-25.75 134.74-25.25 137.14-24.75 139.44-24.75L139.44-24.75 143.29-24.75 142.79-20.4 139.04-20.85Q139.54-19.4 139.54-17.55 139.54-15.7 138.66-13.88 137.79-12.05 136.56-10.95 135.34-9.85 134.11-9.03 132.89-8.2 132.01-7.58 131.14-6.95 131.14-6.45L131.14-6.45Q131.14-5.5 133.14-4.8L133.14-4.8Q138.44-2.65 140.31-1.15 142.19 0.35 142.19 2.55L142.19 2.55Q142.19 6.25 138.46 8.63 134.74 11 129.59 11 124.44 11 121.61 9.35 118.79 7.7 118.79 4.95ZM133.89-16.05L133.89-16.05Q133.89-18.5 132.79-19.65 131.69-20.8 129.34-20.8L129.34-20.8Q124.79-20.8 124.79-16.32 124.79-11.85 129.64-11.85L129.64-11.85Q133.89-11.85 133.89-16.05ZM135.69 3.3L135.69 3.3Q135.69 2.4 134.74 1.63 133.79 0.85 131.34-0.2L131.34-0.2Q127.69 0.8 126.31 1.65 124.94 2.5 124.94 3.75 124.94 5 126.31 5.78 127.69 6.55 130.14 6.55 132.59 6.55 134.14 5.65 135.69 4.75 135.69 3.3ZM145.39-24.15L145.39-24.15 151.44-25.45Q151.89-21.6 152.04-18.15L152.04-18.15Q156.59-25.2 160.59-25.2L160.59-25.2 160.04-17.4Q157.14-17.4 155.46-16.88 153.79-16.35 152.04-14.8L152.04-14.8 152.04-13 152.59-1.25 145.89 0 146.49-12.15Q146.29-18.85 145.39-24.15ZM168.73 0Q165.78 0 163.91-1.88 162.03-3.75 162.03-6.93 162.03-10.1 164.93-12.43 167.83-14.75 171.98-14.75L171.98-14.75 175.38-14.75 175.38-15.6Q175.38-18.05 174.38-18.95 173.38-19.85 170.63-19.85L170.63-19.85Q169.48-19.85 167.91-19.38 166.33-18.9 164.38-17.9L164.38-17.9 162.93-21.85Q165.08-23.35 168.16-24.55 171.23-25.75 173.23-25.75L173.23-25.75Q181.08-25.75 181.08-18.15L181.08-18.15 181.08-8.35Q181.08-5.55 182.83-2.1L182.83-2.1 177.53 0.15Q176.28-2.25 175.68-4.15L175.68-4.15Q172.93 0 168.73 0L168.73 0ZM170.83-5.1L170.83-5.1Q172.83-5.1 175.38-7.15L175.38-7.15 175.38-10.5Q172.73-11.1 171.08-11.1L171.08-11.1Q167.93-11.1 167.93-8.3L167.93-8.3Q167.93-6.85 168.73-5.98 169.53-5.1 170.83-5.1ZM201.68-12.65Q201.68-16.1 201.08-17.25 200.48-18.4 198.28-18.4 196.08-18.4 193.28-16.65L193.28-16.65 193.28-13 193.83-1.25 187.13 0 187.73-12.15Q187.53-18.85 186.63-24.15L186.63-24.15 192.68-25.45Q193.03-22.55 193.18-19.8L193.18-19.8Q193.93-20.8 194.88-21.78 195.83-22.75 197.88-23.98 199.93-25.2 202.03-25.2 204.13-25.2 205.58-23.85 207.03-22.5 207.43-20.15L207.43-20.15Q211.58-25.2 215.83-25.2L215.83-25.2Q218.48-25.2 220.03-23.43 221.58-21.65 221.58-18.6L221.58-18.6 221.28-13 221.83-1 215.08 0.25 215.68-12.65Q215.68-16.1 215.08-17.25 214.48-18.4 212.33-18.4 210.18-18.4 207.48-16.75L207.48-16.75 207.28-13 207.83-1 201.08 0.25 201.68-12.65Z" opacity="1" transform="matrix(1,0,0,1,0,0)" fill="#f1f1f1" class="wordmark-text-0" data-fill-palette-color="primary" id="text-0"></path></svg></g></svg></g></svg></g></svg></g><g transform="matrix(1,0,0,1,0,3.964855154280464)"><svg viewBox="0 0 73.14943480309593 82.30367963865045" height="82.30367963865045" width="73.14943480309593"><g><svg xmlns="http://www.w3.org/2000/svg" xmlns:xlink="http://www.w3.org/1999/xlink" version="1.1" x="0" y="0" viewBox="13.14672859532008 9.365 65.70649975374734 73.92930267289783" enable-background="new 0 0 90 90" xml:space="preserve" height="82.30367963865045" width="73.14943480309593" class="icon-icon-0" data-fill-palette-color="accent" id="icon-0"><path d="M45.607 49.355c-7.747-0.068-13.976 6.313-13.913 14.255 0.064 7.94 6.396 14.435 14.142 14.501 7.748 0.069 13.975-6.313 13.915-14.254C59.686 55.916 53.353 49.421 45.607 49.355zM39.992 64.005c0.008 0.014 0.016 0.029 0.023 0.044 0.069 0.125 0.131 0.255 0.183 0.389 0.022 0.057 0.037 0.118 0.055 0.177 0.032 0.102 0.066 0.204 0.087 0.311 0.034 0.177 0.056 0.358 0.058 0.544 0.001 0.167-0.019 0.328-0.044 0.487-0.026 0.144-0.061 0.285-0.104 0.422h0c-0.367 1.169-1.426 2.011-2.696 2.001-1.581-0.013-2.875-1.339-2.887-2.961-0.013-1.622 1.26-2.927 2.842-2.913 0.894 0.009 1.685 0.444 2.216 1.106v0C39.823 63.735 39.912 63.867 39.992 64.005zM41.145 65.584c-0.019-0.552-0.142-1.076-0.355-1.554 0.191-0.631 0.744-1.092 1.425-1.086 0.843 0.006 1.532 0.715 1.539 1.579 0.007 0.863-0.671 1.558-1.514 1.548C41.811 66.068 41.425 65.88 41.145 65.584zM45.819 76.003c-4.716-0.041-8.806-2.881-10.789-6.962 0.63 0.429 1.38 0.685 2.186 0.691 1.778 0.018 3.256-1.174 3.75-2.821 0.333 0.171 0.703 0.277 1.098 0.282 1.384 0.013 2.497-1.129 2.486-2.546-0.012-1.418-1.143-2.578-2.528-2.588-0.776-0.008-1.464 0.348-1.919 0.912-0.734-0.833-1.78-1.371-2.951-1.381-1.462-0.013-2.719 0.794-3.399 1.993-0.03-6.755 5.275-12.179 11.87-12.121 6.61 0.059 12.013 5.6 12.068 12.377C57.745 70.615 52.43 76.063 45.819 76.003zM70.656 44.442l-49.623-0.434c-4.372-0.038-7.922 3.506-7.886 7.88l0.184 22.948c0.035 4.374 3.64 7.983 8.014 8.022l49.62 0.436c4.373 0.038 7.921-3.507 7.888-7.879l-0.183-22.95C78.635 48.09 75.028 44.48 70.656 44.442zM20.334 52.001l-0.042-5.233 10.139 0.09 0.041 5.234L20.334 52.001zM45.846 79.263c-8.369-0.075-15.205-7.087-15.273-15.662-0.068-8.578 6.659-15.471 15.025-15.397 8.366 0.073 15.205 7.088 15.274 15.662C60.939 72.443 54.212 79.335 45.846 79.263zM62.334 28.219L62.185 9.675 27.264 9.365l0.148 18.545L62.334 28.219zM59.699 12.163l0.109 13.787-29.906-0.262L29.791 11.9 59.699 12.163zM58.371 29.61l0.105 12.84-26.977-0.238-0.101-12.838L58.371 29.61z" fill="#4fcd4a" data-fill-palette-color="accent"></path></svg></g></svg></g></svg></g><defs></defs></svg><rect width="395.52" height="72.83917467432863" fill="none" stroke="none" visibility="hidden"></rect></g></svg></g></svg>