<!-- <svg xmlns="http://www.w3.org/2000/svg" width="24" height="24" viewBox="0 0 24 24" fill="none">
  <path fill-rule="evenodd" clip-rule="evenodd" d="M9 1.25C6.37665 1.25 4.25 3.37665 4.25 6C4.25 8.62335 6.37665 10.75 9 10.75C11.6234 10.75 13.75 8.62335 13.75 6C13.75 3.37665 11.6234 1.25 9 1.25ZM5.75 6C5.75 4.20507 7.20507 2.75 9 2.75C10.7949 2.75 12.25 4.20507 12.25 6C12.25 7.79493 10.7949 9.25 9 9.25C7.20507 9.25 5.75 7.79493 5.75 6Z" fill="#877EFF"/>
  <path d="M15 2.25C14.5858 2.25 14.25 2.58579 14.25 3C14.25 3.41421 14.5858 3.75 15 3.75C16.2426 3.75 17.25 4.75736 17.25 6C17.25 7.24264 16.2426 8.25 15 8.25C14.5858 8.25 14.25 8.58579 14.25 9C14.25 9.41421 14.5858 9.75 15 9.75C17.0711 9.75 18.75 8.07107 18.75 6C18.75 3.92893 17.0711 2.25 15 2.25Z" fill="#877EFF"/>
  <path fill-rule="evenodd" clip-rule="evenodd" d="M3.67815 13.5204C5.07752 12.7208 6.96067 12.25 9 12.25C11.0393 12.25 12.9225 12.7208 14.3219 13.5204C15.7 14.3079 16.75 15.5101 16.75 17C16.75 18.4899 15.7 19.6921 14.3219 20.4796C12.9225 21.2792 11.0393 21.75 9 21.75C6.96067 21.75 5.07752 21.2792 3.67815 20.4796C2.3 19.6921 1.25 18.4899 1.25 17C1.25 15.5101 2.3 14.3079 3.67815 13.5204ZM4.42236 14.8228C3.26701 15.483 2.75 16.2807 2.75 17C2.75 17.7193 3.26701 18.517 4.42236 19.1772C5.55649 19.8253 7.17334 20.25 9 20.25C10.8267 20.25 12.4435 19.8253 13.5776 19.1772C14.733 18.517 15.25 17.7193 15.25 17C15.25 16.2807 14.733 15.483 13.5776 14.8228C12.4435 14.1747 10.8267 13.75 9 13.75C7.17334 13.75 5.55649 14.1747 4.42236 14.8228Z" fill="#877EFF"/>
  <path d="M18.1607 13.2674C17.7561 13.1787 17.3561 13.4347 17.2674 13.8393C17.1787 14.2439 17.4347 14.6439 17.8393 14.7326C18.6317 14.9064 19.2649 15.2048 19.6829 15.5468C20.1014 15.8892 20.25 16.2237 20.25 16.5C20.25 16.7507 20.1294 17.045 19.7969 17.3539C19.462 17.665 18.9475 17.9524 18.2838 18.1523C17.8871 18.2717 17.6624 18.69 17.7818 19.0867C17.9013 19.4833 18.3196 19.708 18.7162 19.5886C19.5388 19.3409 20.2743 18.9578 20.8178 18.4529C21.3637 17.9457 21.75 17.2786 21.75 16.5C21.75 15.6352 21.2758 14.912 20.6328 14.3859C19.9893 13.8593 19.1225 13.4783 18.1607 13.2674Z" fill="#877EFF"/>
</svg> -->
<svg width="81px" height="81px" viewBox="0 0 24 24" fill="none" xmlns="http://www.w3.org/2000/svg"><g id="SVGRepo_bgCarrier" stroke-width="0"></g><g id="SVGRepo_tracerCarrier" stroke-linecap="round" stroke-linejoin="round"></g><g id="SVGRepo_iconCarrier"> <path fill-rule="evenodd" clip-rule="evenodd" d="M3 18C3 15.3945 4.66081 13.1768 6.98156 12.348C7.61232 12.1227 8.29183 12 9 12C9.70817 12 10.3877 12.1227 11.0184 12.348C11.3611 12.4703 11.6893 12.623 12 12.8027C12.3107 12.623 12.6389 12.4703 12.9816 12.348C13.6123 12.1227 14.2918 12 15 12C15.7082 12 16.3877 12.1227 17.0184 12.348C19.3392 13.1768 21 15.3945 21 18V21H15.75V19.5H19.5V18C19.5 15.5147 17.4853 13.5 15 13.5C14.4029 13.5 13.833 13.6163 13.3116 13.8275C14.3568 14.9073 15 16.3785 15 18V21H3V18ZM9 11.25C8.31104 11.25 7.66548 11.0642 7.11068 10.74C5.9977 10.0896 5.25 8.88211 5.25 7.5C5.25 5.42893 6.92893 3.75 9 3.75C10.2267 3.75 11.3158 4.33901 12 5.24963C12.6842 4.33901 13.7733 3.75 15 3.75C17.0711 3.75 18.75 5.42893 18.75 7.5C18.75 8.88211 18.0023 10.0896 16.8893 10.74C16.3345 11.0642 15.689 11.25 15 11.25C14.311 11.25 13.6655 11.0642 13.1107 10.74C12.6776 10.4869 12.2999 10.1495 12 9.75036C11.7001 10.1496 11.3224 10.4869 10.8893 10.74C10.3345 11.0642 9.68896 11.25 9 11.25ZM13.5 18V19.5H4.5V18C4.5 15.5147 6.51472 13.5 9 13.5C11.4853 13.5 13.5 15.5147 13.5 18ZM11.25 7.5C11.25 8.74264 10.2426 9.75 9 9.75C7.75736 9.75 6.75 8.74264 6.75 7.5C6.75 6.25736 7.75736 5.25 9 5.25C10.2426 5.25 11.25 6.25736 11.25 7.5ZM15 5.25C13.7574 5.25 12.75 6.25736 12.75 7.5C12.75 8.74264 13.7574 9.75 15 9.75C16.2426 9.75 17.25 8.74264 17.25 7.5C17.25 6.25736 16.2426 5.25 15 5.25Z" fill="#4fcd4a"></path> </g></svg>